# xmcd CD database file
#
# Track frame offsets:
#	150
#	16162
#	31817
#	52685
#	72952
#	94607
#	112255
#	131540
#	147812
#	166945
#
# Disc length: 2513 seconds
#
# Revision: 0
# Processed by: cddbd v1.5.1PL2 Copyright (c) Steve Scherf et al.
# Submitted via: CDex 1.51
#
DISCID=7909cf0a
DTITLE=OPD - NONG!
DYEAR=1995
DGENRE=JPop
TTITLE0=Rhythm
TTITLE1=真夏のドア(#2)
TTITLE2=夜明けの空に白い月
TTITLE3=Let's Dive
TTITLE4=Shiny Days -ALBUM VERSION-
TTITLE5=NONG!
TTITLE6=SPACE COW-BOY
TTITLE7=そんな君が＊好き
TTITLE8=Good-bye Heartrace
TTITLE9=波の音だけ
EXTD=YEAR: 1995
EXTT0=
EXTT1=
EXTT2=
EXTT3=
EXTT4=
EXTT5=
EXTT6=
EXTT7=
EXTT8=
EXTT9=
PLAYORDER=
